<svg xmlns="http://www.w3.org/2000/svg" xmlns:xlink="http://www.w3.org/1999/xlink" width="60" zoomAndPan="magnify" viewBox="0 0 45 44.999999" height="60" preserveAspectRatio="xMidYMid meet" version="1.0"><defs><g/></defs><rect x="-4.5" width="54" fill="#ffffff" y="-4.5" height="53.999999" fill-opacity="1"/><rect x="-4.5" width="54" fill="#000126" y="-4.5" height="53.999999" fill-opacity="1"/><g fill="#ff66c4" fill-opacity="1"><g transform="translate(8.946602, 34.100127)"><g><path d="M 1.28125 -12.53125 C 1.28125 -4.625 7.296875 0.484375 14.640625 0.484375 C 19.1875 0.484375 22.765625 -1.390625 25.328125 -4.25 L 25.328125 -13.84375 L 13.359375 -13.84375 L 13.359375 -9.25 L 20.046875 -9.25 L 20.046875 -6.203125 C 18.96875 -5.234375 16.9375 -4.296875 14.640625 -4.296875 C 10.078125 -4.296875 6.765625 -7.78125 6.765625 -12.53125 C 6.765625 -17.265625 10.078125 -20.765625 14.640625 -20.765625 C 17.265625 -20.765625 19.421875 -19.375 20.578125 -17.609375 L 25.015625 -20.015625 C 23.109375 -22.984375 19.828125 -25.515625 14.640625 -25.515625 C 7.296875 -25.515625 1.28125 -20.46875 1.28125 -12.53125 Z M 1.28125 -12.53125 "/></g></g></g></svg>