<svg xmlns="http://www.w3.org/2000/svg" xmlns:xlink="http://www.w3.org/1999/xlink" width="200" zoomAndPan="magnify" viewBox="0 0 150 60" height="80" preserveAspectRatio="xMidYMid meet" version="1.0"><defs><g/></defs><g fill="#ff66c4" fill-opacity="1"><g transform="translate(33.852544, 48.65356)"><g><path d="M 19.484375 -14.796875 C 18.835938 -14.628906 18.238281 -14.476562 17.6875 -14.34375 C 17.132812 -14.21875 16.609375 -14.101562 16.109375 -14 C 13.890625 -13.539062 12.328125 -13.410156 11.421875 -13.609375 C 10.515625 -13.816406 9.96875 -14.378906 9.78125 -15.296875 C 9.65625 -15.921875 9.757812 -16.535156 10.09375 -17.140625 C 10.4375 -17.742188 10.984375 -18.347656 11.734375 -18.953125 C 12.441406 -19.484375 13.359375 -19.984375 14.484375 -20.453125 C 15.617188 -20.929688 16.976562 -21.332031 18.5625 -21.65625 C 20.894531 -22.132812 22.660156 -22.191406 23.859375 -21.828125 C 25.054688 -21.472656 25.753906 -20.828125 25.953125 -19.890625 C 26.128906 -19.046875 25.957031 -18.28125 25.4375 -17.59375 C 24.925781 -16.914062 23.96875 -16.335938 22.5625 -15.859375 Z M 23.0625 -16.546875 C 23.945312 -16.285156 24.628906 -15.878906 25.109375 -15.328125 C 25.597656 -14.773438 25.929688 -14.066406 26.109375 -13.203125 C 26.378906 -11.878906 26.207031 -10.515625 25.59375 -9.109375 C 24.976562 -7.710938 23.828125 -6.441406 22.140625 -5.296875 C 20.453125 -4.148438 18.117188 -3.269531 15.140625 -2.65625 C 11.890625 -1.988281 9.078125 -2.007812 6.703125 -2.71875 C 4.328125 -3.425781 2.398438 -4.710938 0.921875 -6.578125 C -0.554688 -8.441406 -1.582031 -10.765625 -2.15625 -13.546875 C -2.800781 -16.710938 -2.660156 -19.660156 -1.734375 -22.390625 C -0.804688 -25.117188 0.804688 -27.4375 3.109375 -29.34375 C 5.410156 -31.25 8.304688 -32.5625 11.796875 -33.28125 C 14.628906 -33.863281 16.90625 -33.804688 18.625 -33.109375 C 20.351562 -32.410156 21.421875 -31.0625 21.828125 -29.0625 C 22.109375 -27.707031 21.875 -26.539062 21.125 -25.5625 C 20.382812 -24.59375 19.132812 -23.925781 17.375 -23.5625 C 16.800781 -23.445312 16.203125 -23.34375 15.578125 -23.25 C 14.953125 -23.164062 14.328125 -23.078125 13.703125 -22.984375 C 13.085938 -22.890625 12.515625 -22.789062 11.984375 -22.6875 C 10.816406 -22.445312 9.773438 -22.023438 8.859375 -21.421875 C 7.941406 -20.828125 7.273438 -20.023438 6.859375 -19.015625 C 6.441406 -18.015625 6.382812 -16.769531 6.6875 -15.28125 C 6.96875 -13.925781 7.46875 -12.878906 8.1875 -12.140625 C 8.90625 -11.398438 9.769531 -10.929688 10.78125 -10.734375 C 11.789062 -10.546875 12.910156 -10.578125 14.140625 -10.828125 C 15.429688 -11.097656 16.375 -11.460938 16.96875 -11.921875 C 17.570312 -12.378906 17.925781 -12.945312 18.03125 -13.625 C 18.144531 -14.3125 18.101562 -15.140625 17.90625 -16.109375 C 17.851562 -16.347656 17.796875 -16.582031 17.734375 -16.8125 C 17.679688 -17.050781 17.597656 -17.285156 17.484375 -17.515625 Z M 23.0625 -16.546875 "/></g></g></g><g fill="#ff66c4" fill-opacity="1"><g transform="translate(60.808995, 43.059283)"><g><path d="M 5.46875 -0.046875 C 3.90625 0.046875 2.679688 -0.34375 1.796875 -1.21875 C 0.910156 -2.09375 0.390625 -3.726562 0.234375 -6.125 C 0.171875 -7.144531 0.210938 -8.367188 0.359375 -9.796875 C 0.503906 -11.222656 0.726562 -12.75 1.03125 -14.375 C 1.34375 -16 1.710938 -17.632812 2.140625 -19.28125 C 2.578125 -20.925781 3.070312 -22.457031 3.625 -23.875 C 4.351562 -25.78125 5.15625 -27.265625 6.03125 -28.328125 C 6.90625 -29.390625 7.847656 -30.148438 8.859375 -30.609375 C 9.878906 -31.078125 10.972656 -31.351562 12.140625 -31.4375 C 13.929688 -31.550781 15.59375 -31.160156 17.125 -30.265625 C 18.65625 -29.367188 20.015625 -27.6875 21.203125 -25.21875 C 21.878906 -23.8125 22.53125 -22.195312 23.15625 -20.375 C 23.789062 -18.550781 24.320312 -16.613281 24.75 -14.5625 C 25.1875 -12.519531 25.46875 -10.460938 25.59375 -8.390625 C 25.75 -5.972656 25.351562 -4.164062 24.40625 -2.96875 C 23.457031 -1.769531 22.0625 -1.113281 20.21875 -1 C 18.675781 -0.894531 17.425781 -1.226562 16.46875 -2 C 15.507812 -2.769531 14.867188 -4.113281 14.546875 -6.03125 C 14.359375 -7.257812 14.21875 -8.535156 14.125 -9.859375 C 14.039062 -11.191406 14.019531 -12.476562 14.0625 -13.71875 L 16.875 -10.78125 C 16.195312 -10.519531 15.332031 -10.328125 14.28125 -10.203125 C 13.238281 -10.078125 12.15625 -10.035156 11.03125 -10.078125 C 9.914062 -10.117188 8.863281 -10.265625 7.875 -10.515625 L 11.328125 -13.46875 C 11.441406 -12.125 11.457031 -10.796875 11.375 -9.484375 C 11.289062 -8.179688 11.179688 -6.992188 11.046875 -5.921875 C 10.953125 -4.703125 10.695312 -3.671875 10.28125 -2.828125 C 9.863281 -1.992188 9.257812 -1.34375 8.46875 -0.875 C 7.675781 -0.40625 6.675781 -0.128906 5.46875 -0.046875 Z M 12.84375 -16.546875 C 13.96875 -16.609375 14.835938 -16.941406 15.453125 -17.546875 C 16.066406 -18.160156 16.347656 -18.910156 16.296875 -19.796875 C 16.265625 -20.171875 16.148438 -20.554688 15.953125 -20.953125 C 15.765625 -21.359375 15.507812 -21.726562 15.1875 -22.0625 C 14.863281 -22.394531 14.472656 -22.65625 14.015625 -22.84375 C 13.554688 -23.03125 13.050781 -23.109375 12.5 -23.078125 C 11.945312 -23.035156 11.457031 -22.882812 11.03125 -22.625 C 10.601562 -22.363281 10.242188 -22.035156 9.953125 -21.640625 C 9.671875 -21.242188 9.453125 -20.816406 9.296875 -20.359375 C 9.148438 -19.898438 9.09375 -19.453125 9.125 -19.015625 C 9.175781 -18.234375 9.535156 -17.609375 10.203125 -17.140625 C 10.878906 -16.671875 11.757812 -16.472656 12.84375 -16.546875 Z M 12.84375 -16.546875 "/></g></g></g><g fill="#ff66c4" fill-opacity="1"><g transform="translate(85.414104, 41.176226)"><g><path d="M 24.359375 2.28125 C 23.367188 2.207031 22.519531 1.953125 21.8125 1.515625 C 21.101562 1.085938 20.578125 0.390625 20.234375 -0.578125 C 19.890625 -1.546875 19.785156 -2.867188 19.921875 -4.546875 C 20.046875 -6.023438 20.285156 -7.585938 20.640625 -9.234375 C 20.992188 -10.890625 21.410156 -12.566406 21.890625 -14.265625 C 22.378906 -15.972656 22.835938 -17.617188 23.265625 -19.203125 L 23.09375 -19.21875 C 21.957031 -15.707031 20.828125 -13.21875 19.703125 -11.75 C 18.585938 -10.289062 17.414062 -9.609375 16.1875 -9.703125 C 15.414062 -9.765625 14.742188 -10.09375 14.171875 -10.6875 C 13.597656 -11.289062 13.082031 -12.375 12.625 -13.9375 C 12.164062 -15.5 11.734375 -17.738281 11.328125 -20.65625 L 11.171875 -20.65625 C 11.265625 -19.539062 11.363281 -18.359375 11.46875 -17.109375 C 11.582031 -15.859375 11.6875 -14.597656 11.78125 -13.328125 C 11.875 -12.054688 11.9375 -10.847656 11.96875 -9.703125 C 12.007812 -8.566406 11.992188 -7.5625 11.921875 -6.6875 C 11.816406 -5.425781 11.570312 -4.289062 11.1875 -3.28125 C 10.800781 -2.269531 10.210938 -1.488281 9.421875 -0.9375 C 8.628906 -0.394531 7.570312 -0.175781 6.25 -0.28125 C 4.488281 -0.425781 3.226562 -1.0625 2.46875 -2.1875 C 1.71875 -3.3125 1.441406 -5.097656 1.640625 -7.546875 C 1.722656 -8.566406 1.851562 -9.753906 2.03125 -11.109375 C 2.207031 -12.472656 2.414062 -13.878906 2.65625 -15.328125 C 2.90625 -16.773438 3.164062 -18.179688 3.4375 -19.546875 C 3.71875 -20.910156 3.984375 -22.09375 4.234375 -23.09375 C 4.785156 -25.363281 5.585938 -26.945312 6.640625 -27.84375 C 7.703125 -28.75 8.988281 -29.140625 10.5 -29.015625 C 11.488281 -28.941406 12.429688 -28.597656 13.328125 -27.984375 C 14.222656 -27.367188 15.003906 -26.304688 15.671875 -24.796875 C 16.347656 -23.296875 16.8125 -21.179688 17.0625 -18.453125 L 17.21875 -18.4375 C 17.894531 -21.195312 18.644531 -23.332031 19.46875 -24.84375 C 20.289062 -26.351562 21.164062 -27.382812 22.09375 -27.9375 C 23.019531 -28.5 23.992188 -28.738281 25.015625 -28.65625 C 26.609375 -28.53125 27.832031 -27.910156 28.6875 -26.796875 C 29.539062 -25.679688 30.113281 -24.175781 30.40625 -22.28125 C 30.632812 -20.726562 30.800781 -18.953125 30.90625 -16.953125 C 31.019531 -14.953125 31.0625 -12.90625 31.03125 -10.8125 C 31 -8.726562 30.910156 -6.773438 30.765625 -4.953125 C 30.535156 -2.117188 29.847656 -0.171875 28.703125 0.890625 C 27.566406 1.960938 26.117188 2.425781 24.359375 2.28125 Z M 24.359375 2.28125 "/></g></g></g><g fill="#ff66c4" fill-opacity="1"><g transform="translate(114.644474, 43.639634)"><g><path d="M 22.65625 -26.203125 C 25.1875 -25.640625 26.875 -24.847656 27.71875 -23.828125 C 28.570312 -22.816406 28.832031 -21.554688 28.5 -20.046875 C 28.15625 -18.484375 27.296875 -17.453125 25.921875 -16.953125 C 24.554688 -16.453125 22.625 -16.476562 20.125 -17.03125 C 19.289062 -17.207031 18.347656 -17.429688 17.296875 -17.703125 C 16.253906 -17.972656 15.164062 -18.289062 14.03125 -18.65625 L 14.296875 -18.953125 C 14.453125 -18.285156 14.453125 -17.613281 14.296875 -16.9375 C 14.148438 -16.269531 13.898438 -15.648438 13.546875 -15.078125 L 12.953125 -15.5 C 13.585938 -15.53125 14.34375 -15.507812 15.21875 -15.4375 C 16.09375 -15.375 16.992188 -15.28125 17.921875 -15.15625 C 18.859375 -15.039062 19.707031 -14.898438 20.46875 -14.734375 C 22.507812 -14.285156 23.875 -13.660156 24.5625 -12.859375 C 25.25 -12.054688 25.488281 -11.195312 25.28125 -10.28125 C 25.0625 -9.28125 24.410156 -8.539062 23.328125 -8.0625 C 22.253906 -7.582031 20.570312 -7.59375 18.28125 -8.09375 C 17.28125 -8.3125 16.210938 -8.601562 15.078125 -8.96875 C 13.941406 -9.332031 12.800781 -9.738281 11.65625 -10.1875 L 12.40625 -10.53125 C 12.570312 -10.070312 12.625 -9.550781 12.5625 -8.96875 C 12.5 -8.382812 12.351562 -7.832031 12.125 -7.3125 C 11.90625 -6.789062 11.59375 -6.34375 11.1875 -5.96875 L 11.28125 -6.375 C 12.03125 -6.4375 12.863281 -6.441406 13.78125 -6.390625 C 14.707031 -6.347656 15.648438 -6.257812 16.609375 -6.125 C 17.566406 -6 18.453125 -5.847656 19.265625 -5.671875 C 21.171875 -5.242188 22.523438 -4.601562 23.328125 -3.75 C 24.140625 -2.894531 24.382812 -1.742188 24.0625 -0.296875 C 23.851562 0.648438 23.492188 1.390625 22.984375 1.921875 C 22.484375 2.460938 21.742188 2.867188 20.765625 3.140625 C 19.984375 3.328125 19.035156 3.425781 17.921875 3.4375 C 16.804688 3.445312 15.632812 3.378906 14.40625 3.234375 C 13.1875 3.097656 11.992188 2.90625 10.828125 2.65625 C 8.691406 2.175781 6.988281 1.519531 5.71875 0.6875 C 4.457031 -0.132812 3.625 -1.113281 3.21875 -2.25 C 2.851562 -3.34375 2.722656 -4.695312 2.828125 -6.3125 C 2.929688 -7.9375 3.28125 -10.113281 3.875 -12.84375 C 4.445312 -15.425781 5.015625 -17.539062 5.578125 -19.1875 C 6.140625 -20.832031 6.710938 -22.140625 7.296875 -23.109375 C 7.878906 -24.078125 8.46875 -24.820312 9.0625 -25.34375 C 9.96875 -26.132812 11.128906 -26.65625 12.546875 -26.90625 C 13.960938 -27.164062 15.539062 -27.210938 17.28125 -27.046875 C 19.019531 -26.890625 20.8125 -26.609375 22.65625 -26.203125 Z M 22.65625 -26.203125 "/></g></g></g><g fill="#8c52ff" fill-opacity="1"><g transform="translate(6.03657, 38.250741)"><g><path d="M 10.1875 -9.59375 C 10.289062 -10.132812 10.5 -10.628906 10.8125 -11.078125 C 11.125 -11.535156 11.519531 -11.90625 12 -12.1875 C 12.488281 -12.46875 13.019531 -12.625 13.59375 -12.65625 C 14.300781 -12.695312 14.9375 -12.566406 15.5 -12.265625 C 16.070312 -11.972656 16.535156 -11.460938 16.890625 -10.734375 C 17.242188 -10.015625 17.457031 -9.035156 17.53125 -7.796875 C 17.5625 -7.191406 17.566406 -6.578125 17.546875 -5.953125 C 17.535156 -5.328125 17.503906 -4.75 17.453125 -4.21875 C 17.410156 -3.6875 17.351562 -3.242188 17.28125 -2.890625 C 17.164062 -2.234375 16.898438 -1.734375 16.484375 -1.390625 C 16.078125 -1.054688 15.566406 -0.875 14.953125 -0.84375 C 14.378906 -0.8125 13.910156 -0.945312 13.546875 -1.25 C 13.179688 -1.5625 12.984375 -2.015625 12.953125 -2.609375 C 12.941406 -2.835938 12.957031 -3.144531 13 -3.53125 C 13.050781 -3.925781 13.101562 -4.347656 13.15625 -4.796875 C 13.207031 -5.242188 13.25 -5.675781 13.28125 -6.09375 C 13.320312 -6.519531 13.335938 -6.878906 13.328125 -7.171875 C 13.296875 -7.585938 13.195312 -7.90625 13.03125 -8.125 C 12.875 -8.351562 12.660156 -8.457031 12.390625 -8.4375 C 12.023438 -8.414062 11.742188 -8.160156 11.546875 -7.671875 C 11.347656 -7.191406 11.25 -6.503906 11.25 -5.609375 C 11.25 -4.941406 11.234375 -4.34375 11.203125 -3.8125 C 11.171875 -3.28125 11.097656 -2.835938 10.984375 -2.484375 C 10.847656 -1.992188 10.628906 -1.613281 10.328125 -1.34375 C 10.023438 -1.082031 9.601562 -0.9375 9.0625 -0.90625 C 8.46875 -0.875 7.984375 -1.015625 7.609375 -1.328125 C 7.242188 -1.640625 7.023438 -2.148438 6.953125 -2.859375 C 6.921875 -3.253906 6.890625 -3.71875 6.859375 -4.25 C 6.835938 -4.789062 6.8125 -5.316406 6.78125 -5.828125 C 6.757812 -6.347656 6.726562 -6.78125 6.6875 -7.125 C 6.632812 -7.613281 6.519531 -7.96875 6.34375 -8.1875 C 6.164062 -8.40625 5.925781 -8.503906 5.625 -8.484375 C 5.300781 -8.472656 5.054688 -8.289062 4.890625 -7.9375 C 4.722656 -7.582031 4.625 -7.09375 4.59375 -6.46875 C 4.601562 -6.164062 4.617188 -5.796875 4.640625 -5.359375 C 4.671875 -4.921875 4.703125 -4.484375 4.734375 -4.046875 C 4.765625 -3.609375 4.78125 -3.238281 4.78125 -2.9375 C 4.800781 -1.988281 4.644531 -1.300781 4.3125 -0.875 C 3.976562 -0.445312 3.484375 -0.210938 2.828125 -0.171875 C 2.097656 -0.128906 1.539062 -0.300781 1.15625 -0.6875 C 0.78125 -1.070312 0.523438 -1.71875 0.390625 -2.625 C 0.316406 -3.132812 0.25 -3.640625 0.1875 -4.140625 C 0.132812 -4.640625 0.09375 -5.144531 0.0625 -5.65625 C 0.03125 -6.164062 0.0195312 -6.710938 0.03125 -7.296875 C 0.0390625 -7.890625 0.0546875 -8.445312 0.078125 -8.96875 C 0.128906 -9.851562 0.296875 -10.59375 0.578125 -11.1875 C 0.867188 -11.789062 1.375 -12.113281 2.09375 -12.15625 C 2.75 -12.195312 3.234375 -12.039062 3.546875 -11.6875 C 3.859375 -11.332031 4.035156 -10.765625 4.078125 -9.984375 C 4.097656 -9.722656 4.09375 -9.484375 4.0625 -9.265625 L 3.984375 -9.65625 C 4.179688 -10.519531 4.570312 -11.207031 5.15625 -11.71875 C 5.75 -12.238281 6.421875 -12.519531 7.171875 -12.5625 C 8.128906 -12.613281 8.890625 -12.351562 9.453125 -11.78125 C 10.023438 -11.21875 10.367188 -10.414062 10.484375 -9.375 Z M 10.1875 -9.59375 "/></g></g></g><g fill="#8c52ff" fill-opacity="1"><g transform="translate(23.734627, 37.347625)"><g><path d="M 3.21875 4.03125 C 2.164062 3.988281 1.660156 3.363281 1.703125 2.15625 C 1.722656 1.6875 1.875 1.164062 2.15625 0.59375 C 2.445312 0.0195312 2.828125 -0.550781 3.296875 -1.125 C 3.765625 -1.695312 4.285156 -2.207031 4.859375 -2.65625 L 4.84375 -2.34375 C 3.382812 -3.625 2.289062 -4.828125 1.5625 -5.953125 C 0.832031 -7.085938 0.488281 -8.210938 0.53125 -9.328125 C 0.5625 -10.148438 0.789062 -10.78125 1.21875 -11.21875 C 1.65625 -11.65625 2.234375 -11.859375 2.953125 -11.828125 C 3.898438 -11.796875 4.691406 -11.242188 5.328125 -10.171875 C 5.972656 -9.097656 6.421875 -7.503906 6.671875 -5.390625 L 6.75 -5.390625 C 7.050781 -7.597656 7.550781 -9.222656 8.25 -10.265625 C 8.957031 -11.304688 9.769531 -11.8125 10.6875 -11.78125 C 11.269531 -11.757812 11.707031 -11.566406 12 -11.203125 C 12.289062 -10.835938 12.425781 -10.328125 12.40625 -9.671875 C 12.382812 -9.242188 12.289062 -8.734375 12.125 -8.140625 C 11.96875 -7.546875 11.742188 -6.898438 11.453125 -6.203125 C 11.171875 -5.503906 10.832031 -4.769531 10.4375 -4 C 10.039062 -3.238281 9.601562 -2.472656 9.125 -1.703125 C 7.863281 0.304688 6.769531 1.769531 5.84375 2.6875 C 4.925781 3.601562 4.050781 4.050781 3.21875 4.03125 Z M 3.21875 4.03125 "/></g></g></g></svg>